<svg width="12" height="14" viewBox="0 0 12 14" fill="none" xmlns="http://www.w3.org/2000/svg">
<g clip-path="url(#clip0_4474_1399)">
<path d="M10.501 10.5V11.6655V12.8328H9.33368H8.16632H7.00069H5.83333H4.6677H3.50035H2.33299H1.16736V11.6655V10.5H0V11.6655V12.8328V14H1.16736H2.33299H3.50035H4.6677H5.83333H7.00069H8.16632H9.33368H10.501H11.6667V12.8328V11.6655V10.5H10.501Z" fill="#B1B1B1"/>
<path d="M10.5009 9.33301H9.3335V10.5003H10.5009V9.33301Z" fill="#B1B1B1"/>
<path d="M9.33337 8.16699H8.16602V9.33424H9.33337V8.16699Z" fill="#B1B1B1"/>
<path d="M5.83299 8.16725H7.00035H8.16598V7.00001H7.00035V5.83276H5.83299H4.66736V7.00001H3.5V8.16725H4.66736H5.83299Z" fill="#B1B1B1"/>
<path d="M2.33435 9.33301H1.16699V10.5003H2.33435V9.33301Z" fill="#B1B1B1"/>
<path d="M3.50037 8.16699H2.33301V9.33424H3.50037V8.16699Z" fill="#B1B1B1"/>
<path d="M4.66736 4.66724H3.5V5.83448H4.66736V4.66724Z" fill="#B1B1B1"/>
<path d="M3.50037 2.33276H2.33301V3.50001V4.66725H3.50037V3.50001V2.33276Z" fill="#B1B1B1"/>
<path d="M4.66736 1.16699H3.5V2.33424H4.66736V1.16699Z" fill="#B1B1B1"/>
<path d="M7.00047 1.16724V0H5.83311H4.66748V1.16724H5.83311H7.00047Z" fill="#B1B1B1"/>
<path d="M8.16785 1.16699H7.00049V2.33424H8.16785V1.16699Z" fill="#B1B1B1"/>
<path d="M8.16602 4.66725H9.33337V3.50001V2.33276H8.16602V3.50001V4.66725Z" fill="#B1B1B1"/>
<path d="M8.16785 4.66724H7.00049V5.83448H8.16785V4.66724Z" fill="#B1B1B1"/>
</g>
<defs>
<clipPath id="clip0_4474_1399">
<rect width="11.6655" height="14" fill="white"/>
</clipPath>
</defs>
</svg>
