<svg width="19" height="13" viewBox="0 0 19 13" fill="none" xmlns="http://www.w3.org/2000/svg">
<g clip-path="url(#clip0_4474_3071)">
<path d="M13.0052 11.0547H12.168V11.8689H13.0052V11.0547Z" fill="#030423"/>
<path d="M13.8431 10.2432H13.0059V11.0574H13.8431V10.2432Z" fill="#030423"/>
<path d="M17.2815 5.6665H16.4443V6.48074H17.2815V5.6665Z" fill="#030423"/>
<path d="M17.2815 6.4834H16.4443V7.29763H17.2815V6.4834Z" fill="#030423"/>
<path d="M16.4378 7.30005H15.6006V8.11428H16.4378V7.30005Z" fill="#030423"/>
<path d="M15.5953 8.09155H13.0225V8.90578H15.5953V8.09155Z" fill="#030423"/>
<path d="M18.1077 3.39771H17.2705V4.21194H18.1077V3.39771Z" fill="#030423"/>
<path d="M18.9378 2.60352H18.1006V3.41775H18.9378V2.60352Z" fill="#030423"/>
<path d="M10.4661 11.864H9.62891V12.6782H10.4661V11.864Z" fill="#030423"/>
<path d="M7.89091 12.1089H7.05371V12.9231H7.89091V12.1089Z" fill="#030423"/>
<path d="M11.302 11.0547H10.4648V11.8689H11.302V11.0547Z" fill="#030423"/>
<path d="M11.8558 9.39819H11.0186V11.0879H11.8558V9.39819Z" fill="#030423"/>
<path d="M7.0243 11.6599L6.17689 11.6625L6.17434 12.5048L5.37032 12.5023V11.6651L4.63011 11.6574L4.62755 10.7334L3.82353 10.7257L3.82608 9.33722L2.98633 9.33211V6.41721L4.63266 6.41211L4.63521 7.88487L4.99511 7.88742L5.00021 8.48215L5.52602 8.46683L5.53112 9.95236L6.1871 9.95746L6.18965 10.6517L7.0192 10.6492L7.0243 11.6599Z" fill="#030423"/>
<path d="M8.67139 11.6651L8.66373 12.5023H7.87247L7.86992 11.2362L8.54632 11.2286L8.54376 10.348L7.86736 10.3454L7.86992 9.33466L7.09142 9.32956L7.08887 6.41466L8.66373 6.41211L8.66628 7.12935L9.35034 7.1319L9.35289 8.53319H10.1518V10.7691L9.35034 10.7717L9.34778 11.6599L8.67139 11.6651Z" fill="#030423"/>
<path d="M3.80025 11.6571H1.47497L1.46986 10.7306L0.625 10.7255V8.53802L1.46986 8.53036L1.47497 7.62169L2.25602 7.61914L2.25091 9.85253L3.03706 9.86019V10.9654L3.8079 10.9603L3.80025 11.6571Z" fill="#030423"/>
<path d="M16.2673 4.23216L16.2622 3.48684L14.6822 3.4945V2.61646H12.2319L12.2268 3.50216L11.2977 3.50981L11.29 4.40827L10.4401 4.42104L10.4375 4.46443L10.4401 7.48908L11.2926 7.49163L11.3002 8.85719L12.2268 8.85975V9.57188L13.2911 9.57954V8.91335" fill="#030423"/>
<path d="M10.4421 2.63158L9.50022 2.62392L9.49766 1.7178L7.37403 1.72035V0.883147L5.18147 0.880595L5.17381 0H0L0.00255245 1.99602H0.929092V3.40752L1.80969 3.41262V4.48976L3.8542 4.48721L3.86186 5.41885H9.49766V4.48976L10.4421 4.4821L10.4446 4.43871L10.4421 2.63158Z" fill="#030423"/>
<path d="M16.4428 3.479H13.4258V8.12446H16.4428V3.479Z" fill="#030423"/>
<path d="M17.2882 4.2041H14.2432V7.35638H17.2882V4.2041Z" fill="#030423"/>
</g>
<defs>
<clipPath id="clip0_4474_3071">
<rect width="18.9341" height="12.9231" fill="white"/>
</clipPath>
</defs>
</svg>
