<svg width="14" height="14" viewBox="0 0 14 14" fill="none" xmlns="http://www.w3.org/2000/svg">
<path d="M5.49561 8.11597L5.49463 8.18042L5.48584 9.10229L5.48486 9.16479H4.57275L4.56982 9.16577C4.56787 9.29655 4.57004 9.42317 4.57178 9.55347C4.57377 9.70361 4.57342 9.8575 4.55811 10.0212L4.55225 10.0779H3.53174V9.05249L3.59424 9.05151L4.44385 9.03979L4.44482 9.03784H4.4458V8.12671L4.50928 8.12573L5.43018 8.11597H5.49561Z" fill="#B1B1B1" stroke="#B1B1B1" stroke-width="0.126683"/>
<path d="M10.0718 3.5376V4.56396L10.0093 4.56494L9.15869 4.57568V4.57861H9.15771V5.48779L9.09521 5.48877L8.17432 5.49951L8.17334 5.43701H8.10986V5.37451L8.11084 5.37354L8.11865 4.51514L8.11963 4.45166H9.03076V4.45068L9.03369 4.44971C9.03561 4.31935 9.03347 4.19296 9.03174 4.06299C9.02975 3.91281 9.03108 3.7592 9.04639 3.59521L9.05127 3.5376H10.0718Z" fill="#B1B1B1" stroke="#B1B1B1" stroke-width="0.126683"/>
<path d="M8.23926 6.34741V6.41089H8.17578L7.3252 6.41382L7.32227 7.26538V7.32886H7.25977L6.40723 7.33179L6.4043 8.18237V8.24487H6.34082L5.43066 8.24292L5.36816 8.24194V8.17944L5.36523 7.26929V7.20581H5.42871L6.27832 7.2019L6.28125 6.35034L6.28223 6.28784H6.34473L7.19629 6.28394L7.19922 5.43237L7.2002 5.3689H7.26367L8.17383 5.37378H8.23633V5.43726L8.23926 6.34741Z" fill="#B1B1B1" stroke="#B1B1B1" stroke-width="0.126683"/>
<path d="M3.66309 3.60547L3.66211 3.66895H3.59863L2.7373 3.66406L2.6748 3.66309L2.67383 3.60059L2.66895 2.80371L1.86816 2.79492L1.80566 2.79395L1.80469 2.73242L1.79883 1.86328V1.7998H1.86328L2.7334 1.80664L2.7959 1.80762L2.79688 1.86914L2.80273 2.66797L3.60547 2.67969L3.66895 2.68066L3.66797 2.74316L3.66309 3.60547Z" fill="#B1B1B1" stroke="#B1B1B1" stroke-width="0.126683"/>
<path d="M1.9292 4.41211V5.40918H0.0629883V4.41211H1.9292Z" fill="#B1B1B1" stroke="#B1B1B1" stroke-width="0.126683"/>
<path d="M5.41309 0.0632324V0.126709L5.4043 1.86597L5.40332 1.92944L5.34082 1.92847L4.47461 1.92651H4.41113V1.86304L4.41992 0.126709V0.0632324H5.41309Z" fill="#B1B1B1" stroke="#B1B1B1" stroke-width="0.126683"/>
<path d="M1.92627 0.934326V0.997803L1.92529 1.86304V1.92651H1.86182L1.00146 1.92749H0.938965L0.937988 1.86499L0.933105 0.997803V0.934326H1.92627Z" fill="#B1B1B1" stroke="#B1B1B1" stroke-width="0.126683"/>
<path d="M11.7554 11.627L11.7563 11.6914L11.6919 11.6904L10.8208 11.6836L10.7583 11.6826V11.6201L10.7505 10.8213L9.94873 10.8115L9.88623 10.8105V10.7471L9.89209 9.88477V9.82129H9.95557L10.8179 9.82715H10.8804L10.8813 9.88965L10.8853 10.6855L11.687 10.6953L11.7485 10.6963L11.7495 10.7588L11.7554 11.627Z" fill="#B1B1B1" stroke="#B1B1B1" stroke-width="0.126683"/>
<path d="M11.6255 9.07788V8.08081H13.4917V9.07788H11.6255Z" fill="#B1B1B1" stroke="#B1B1B1" stroke-width="0.126683"/>
<path d="M9.13525 13.3643L9.13428 13.4268H8.14209V13.3633L8.15088 11.624V11.5605H8.21436L9.08057 11.5635H9.14404L9.14307 11.627L9.13525 13.3643Z" fill="#B1B1B1" stroke="#B1B1B1" stroke-width="0.126683"/>
<path d="M12.6157 11.5618L12.6167 11.6252L12.6216 12.4915V12.5549H12.5581L11.6919 12.5559H11.6284V12.4924L11.6294 11.6272V11.5637H11.6919L12.5532 11.5618H12.6157Z" fill="#B1B1B1" stroke="#B1B1B1" stroke-width="0.126683"/>
<rect x="4.34326" y="10.9192" width="0.987378" height="0.987378" transform="rotate(45 4.34326 10.9192)" fill="#B1B1B1" stroke="#B1B1B1" stroke-width="0.126683"/>
<rect x="9.45801" y="2.32591" width="0.987378" height="0.987378" transform="rotate(-135 9.45801 2.32591)" fill="#B1B1B1" stroke="#B1B1B1" stroke-width="0.126683"/>
<rect x="0.0895781" width="0.987378" height="0.987378" transform="matrix(-0.707107 -0.707107 -0.707107 0.707107 2.6705 9.24645)" fill="#B1B1B1" stroke="#B1B1B1" stroke-width="0.126683"/>
<rect x="-0.0895781" y="-7.55087e-09" width="0.987378" height="0.987378" transform="matrix(0.707107 0.707107 0.707107 -0.707107 11.2579 4.1256)" fill="#B1B1B1" stroke="#B1B1B1" stroke-width="0.126683"/>
<rect x="7.38623" y="9.09353" width="0.987378" height="3.56946" transform="rotate(45 7.38623 9.09353)" fill="#B1B1B1" stroke="#B1B1B1" stroke-width="0.126683"/>
<rect x="6.2124" y="4.35447" width="0.987378" height="3.85636" transform="rotate(-135 6.2124 4.35447)" fill="#B1B1B1" stroke="#B1B1B1" stroke-width="0.126683"/>
<rect x="0.0895781" width="0.987378" height="3.56946" transform="matrix(-0.707107 -0.707107 -0.707107 0.707107 4.49618 6.20348)" fill="#B1B1B1" stroke="#B1B1B1" stroke-width="0.126683"/>
<rect x="-0.0895781" y="-7.55087e-09" width="0.987377" height="3.85636" transform="matrix(0.707107 0.707107 0.707107 -0.707107 9.22913 7.37145)" fill="#B1B1B1" stroke="#B1B1B1" stroke-width="0.126683"/>
<rect x="3.82444" y="11.6177" width="0.987378" height="2.70877" transform="rotate(135 3.82444 11.6177)" fill="#B1B1B1" stroke="#B1B1B1" stroke-width="0.126683"/>
<rect x="9.97732" y="1.62793" width="0.987378" height="2.70877" transform="rotate(-45 9.97732 1.62793)" fill="#B1B1B1" stroke="#B1B1B1" stroke-width="0.126683"/>
</svg>
